<?xml version="1.0" encoding="UTF-8"?>
<svg version="1.1" viewBox="0 0 1481 2048" width="1280" height="1280" xmlns="http://www.w3.org/2000/svg">
<path transform="translate(0)" d="m0 0h1481v2048h-1481z" fill="#FCFCFC"/>
<path transform="translate(535,1092)" d="m0 0h613l57 1 128 4 67 3 22 2 18 3 3 2 2 12v32l-2 47-2 24-6 59-7 61-5 42-7 55-7 54-6 45-18 126-9 62-13 88-10 65-8 49-3 15h-1226l-3-25-12-105-11-98-7-63-12-111-12-115-7-69-5-53-5-56-5-64-1-21v-57l1-1 22-2 63-3 196-4 127-2z"/>
<path transform="translate(527)" d="m0 0h56l31 5 21 3 34 8 27 8 26 11 24 12 16 10 4 2h7l6-8 9-8 14-10 15-9 19-8 18-4 15-2h29l24 4 27 9 21 10 27 16 23 13 22 11 24 10 25 8 23 5 7 1h34l19-3 22-6h3l-2 6-12 22-9 12-11 12-11 9-13 8-17 8-23 6-14 2-16 1 4 5 15 29 12 28 11 30 10 34 9 39 6 32 1 8 1 26 9 11 6 6-1 3-8 7-2 2h-8l-4-4v-2l-5 1-10 15-9 13-3 4-1 3-3 3 4 4 4 6 7 19 3 17 1 12v14l-2 20-4 19-7 21-8 16-6 10-11 13-11 10-10 6-19 9-15 5-10 2-14 2-6 2-10 1-2 1-11 1-27 1h-28l-33-2-26-4-5-1v-2h-8l-11-3v-2l-5-1-16-8v-2l-4-2-5-6-3-5-4-10-2-7-2-10-3-8-1-8-2-6-4-21-1-11-2-7v-49h-54v5l2 7v26l-3 18-1 2-1 10-1 2-3 22-6 24-9 27-7 9-11 7-20 7-6 2-11 2-1 1-29 4-27 2h-41l-34-3-23-4-12-3-8-3-9-3-16-8-12-8-10-9-10-11-10-15-7-15-7-22-3-19v-42l3-21h2l1-6 2-4h2v-8l-3-5-2-4-3-1-6-10-11-17-5-3-8 8-5-1-12-11 2-4 8-7 1-4-9-6-1-5v-20l4-40 6-38 7-31 10-32 13-32 12-24 15-24 13-18 13-15 11-12 10-9 10-8 7-8h-80l4-5 16-9 13-6 19-6 20-4 8-1h50l36 3h11l-9-11-14-18-10-14-14-19z" fill="#F1612B"/>
<path transform="translate(1129,395)" d="m0 0 4 2 5 6v2h2l9 11 6 6-1 3-8 7-2 2h-8l-4-4v-2l-5 1-10 15-9 13-3 4-1 3-3 3 4 4 4 6 7 19 3 17 1 12v14l-2 20-4 19-7 21-8 16-6 10-11 13-11 10-10 6-19 9-15 5-10 2-14 2-6 2-10 1-2 1-11 1-27 1h-28l-33-2-26-4-5-1v-2h-8l-11-3v-2l-5-1-16-8v-2l-4-2-5-6-3-5-4-10-2-7-2-10-3-8-1-8-2-6-4-21-1-11-2-7v-49h-54v5l2 7v26l-3 18-1 2-1 10-1 2-3 22-6 24-9 27-7 9-11 7-20 7-6 2-11 2-1 1-29 4-27 2h-41l-34-3-23-4-12-3-8-3-9-3-16-8-12-8-10-9-10-11-10-15-7-15-7-22-3-19v-42l3-21h2l1-6 2-4h2v-8l-3-5-2-4-3-1-6-10-11-17-5-3-8 8-5-1-12-11 2-4 8-7 14-16 2-2 4 1 6 7 11 17 22 33 5-2 20-9 14-4 19-3 2-1 25-2h43l25 2 1 1 25 3 15 1v2l17 1 10 3 10 1 5 2 19 4 10 4 10 3 10 5 7 3 4 3v2h78l6-2 5-4 15-8 22-7 9-3 12-2 6-2 9-2 21-3 9-2 12-1 1-1 7-1 40-2h61l26 4 25 7 8 5 2-5 16-24 10-13 8-11z" fill="#6C634D"/>
<path transform="translate(589,842)" d="m0 0h5v19h2l3 20 3 9 4 8v2h2v3h2l3 5v2h2l2 5 4 2 9 9 8 6 14 7 20 6h134l11-2 9-4 11-6 10-8 8-8 8-12 4-8 3-12 2-7 1-28 37 12 30 11 28 12 17 8 19 10 11 6 21 13 22 15 16 12 14 11 14 12 15 14 24 24 9 11 8 9 12 16 10 15v1l-107-2-20-1h-321l-34 1-119 1-115 2-97 1h-123l-4-2 12-16 12-14 9-11 12-14 9-10 16-16 8-7 14-12 12-10 19-14 19-13 9-6 11-7 14-7 14-8 21-10 29-13 34-12 33-10z"/>
<path transform="translate(727,502)" d="m0 0 55 1 1 49 2 7 2 17 4 20 1 1 2 12 2 4 2 10 3 8 4 10 5 8 5 4 1 2 16 8 4 1v2l11 2 8 1v2l11 1 20 3 33 2h28l27-1 11-1 2-1 15-2 1-1 14-2 10-2 3 1-9 11-14 14-11 9-9 8-19 14-21 14-19 11-23 12-18 8-13 5-2 2v67l1 7v28l-4 16-4 10-8 11-7 8-10 9-10 6-10 5-6 2-8 1h-134l-23-7-12-7-10-8-12-12v-2h-2l-3-5v-2h-2v-3h-2l-6-13-2-6-2-13v-7h-2l-1-6v-14h2v-75l-5-5-38-24-25-17-18-13-13-11-17-17-7-10-1-3 9 1 8 3 12 3 27 4 26 2h41l36-3 20-3 1-1 16-3 10-4 13-5 11-8 4-6 7-21 7-26 3-16 1-10 1-2 1-10 3-12 1-8v-26l-2-7z" fill="#FDE6B3"/>
<path transform="translate(746,259)" d="m0 0h7l28 11 35 15 34 15 21 9 32 15 36 16 50 24 28 14 6 4v55l-1 2h-52l-36 3-17 2-1 1-19 2-8 2-20 3-9 2-1 1-16 3-27 9-17 9-4 4-5 1h-76l-7-6-10-4-11-5-14-4-4-2-20-4-1-1-14-2-6-2-17-2v-2h-15l-25-3-1-1-25-2h-43l-25 2-7 2-13 1v-81l42-15 38-14 42-15 112-41 47-17z" fill="#FDE6B3"/>
<path transform="translate(140 2e3)" d="m0 0h1152l55 1 9 3 6 5 4 7 1 4v7l-3 9-11 10h-1253l-3-5-8-9-2-5 1-9 5-9 7-6 6-2z" fill="#010101"/>
<path transform="translate(515,461)" d="m0 0h25l26 1 26 3 35 6 24 5 27 8 18 7 6 5 4 7 2 9 1 15-1 19-5 35-7 30-5 15-4 10-7 6-16 6-25 5-27 4-28 2h-23l-27-2-31-5-33-8-15-8-12-11-9-11-10-16-6-15-6-25-2-17v-14l2-16 7-21 4-4 6-3 5-4h3v-2l9-4 9 1 1-7 1-1 21-3 11-1z" fill="#6C624C"/>
<path transform="translate(1129,395)" d="m0 0 4 2 5 6v2h2l9 11 6 6-1 3-8 7-2 2h-8l-4-4v-2l-5 1-10 15-9 13-3 4-1 3-3 3 4 4 4 6 7 19 3 17 1 12v14l-2 20-4 19-7 21-8 16-6 10-11 13-11 10-10 6-19 9-15 5-10 2-14 2-6 2-10 1-2 1-11 1-27 1h-28l-33-2-26-4-5-1v-2h-8l-11-3v-2l-5-1-16-8v-2l-4-2-5-6-3-5-4-10-2-7-2-10-3-8-1-8-2-6-4-21-1-11-2-7v-49h-54v5l2 7v26l-3 18-1 2-1 10-1 2-3 22-6 24-9 27-7 9-11 7-20 7-6 2-11 2-1 1-29 4-27 2h-41l-34-3-23-4-12-3-8-3-9-3-16-8-12-8-10-9-10-11-10-15-7-15-7-22-3-19v-42l3-21h2l1-6 2-4h2v-8l-3-5-2-4-3-1-6-10-11-17-5-3-8 8-5-1-12-11 2-4 8-7 14-16 2-2 4 1 6 7 11 17 22 33 5-2 20-9 14-4 19-3 2-1 25-2h43l25 2 1 1 25 3 15 1v2l17 1 10 3 10 1 5 2 19 4 10 4 10 3 10 5 7 3 4 3v2h78l6-2 5-4 15-8 22-7 9-3 12-2 6-2 9-2 21-3 9-2 12-1 1-1 7-1 40-2h61l26 4 25 7 8 5 2-5 16-24 10-13 8-11zm-162 63-51 5-30 5-38 9-26 8-11 6-5 6-3 9-1 5v32l6 36 7 33 6 18 4 6 5 4 11 5 23 6 31 4 37 2h29l37-6 20-4 21-6 16-8 11-8 8-9 9-15 8-16 5-15 4-25v-30l-4-16-4-10-8-10-10-7-10-4-29-7-7 1-1 2-3-4-4-1-14-1zm-452 3-26 1-25 3-7 1-2 3v5l-10-1-8 4v2l-4 1-7 5-6 3-6 16-3 13-1 10v14l2 17 6 25 6 15 10 16 9 11 8 8 11 7 8 4 33 8 31 5 27 2h23l28-2 34-5 21-5 13-5 7-6 8-21 7-29 5-32 1-8 1-21-1-13-3-11-4-6-9-6-33-11-21-5-33-6-29-4-10-1-26-1z" fill="#030201"/>
<path transform="translate(723,1391)" d="m0 0h28l16 3 13 5 12 6 14 10 16 16 7 10 8 15 5 13 3 16v26l-2 15-4 12-7 14-9 15-12 13-13 10-15 8-18 6-21 4h-15l-22-4-14-5-14-8-13-10-13-13-9-13-7-15-6-18-2-10v-24l5-21 6-16 9-15 9-11 8-8 13-10 16-8 14-5z" fill="#FCFCFC"/>
<path transform="translate(626,472)" d="m0 0 12 1 24 6 30 10 6 4 3 7 2 8-7 8-38 38-7 8-21 21-11 9-5 3-2-23-5-15-8-14-7-6-6-2-11 9-8 9-5 8-9 6-9 8h-2v2l-8 7-12 13-34 34-10 8-7 1-5-3-1-2 1-2h2l2-4 12-12 8-7 14-14h2l2-4 19-19 7-8 33-33 6-5 7-8 10-9 30-30z" fill="#6C634D"/>
<path transform="translate(586,534)" d="m0 0 6 2 8 7 8 14 5 15 1 17-2 19-4 11-6 10-7 6-4 2h-8l-8-5-7-6-5-13-2-11-1-13v-11l1-12 2-4 2-7 7-9 11-10z"/>
<path transform="translate(877,524)" d="m0 0 7 2 8 6 7 10 4 19 1 9v17l-1 9-4 9-9 12-7 7-4 2h-6l-9-6-6-7-6-14-1-12 1-10v-16l1-11 4-10 7-10 6-4z"/>
<path transform="translate(1090,507)" d="m0 0h5l2 3 1 8-2 6-11 9-26 24-7 7-8 7-43 43-8 7-8 8-8 7-19 19-11 1-9-2 1-4 21-21 8-7 13-12 8-7 10-9 12-11 13-12 26-26 5-4 31-31z" fill="#506E73"/>
<path transform="translate(626,472)" d="m0 0h6v2l5 1-2 6-9 12-11 12-9 9-8 7-5 4-8 11-10 8-8 9-5 8-9 6-9 8h-2v2l-8 7-12 13-34 34-10 8-7 1-5-3-1-2 1-2h2l2-4 12-12 8-7 14-14h2l2-4 19-19 7-8 33-33 6-5 7-8 10-9 30-30z" fill="#506D72"/>
<path transform="translate(1023,484)" d="m0 0h1v14l-12 13-16 17-31 31-1 2h-2v2h-2l-2 4-34 34-8 7-10 9-13 13-9 7-6 1-2-4v-7l9-6 9-10 6-9 8-7 20-18 14-14 8-7 14-14 8-7 17-17 5-6 8-7 12-13 7-7z" fill="#506D72"/>
<path transform="translate(546,463)" d="m0 0h10l-2 5-7 7-7 8-11 12-19 19-1 2h-2l-2 4-15 16-7 7-4 5-9 9h-2l-2 4-7 6-14 14-6 4h-6v-7l2-5 9-10 16-17 3-1 2-4 15-15 7-8 28-28 7-8 16-16z" fill="#506E73"/>
<path transform="translate(696,494)" d="m0 0 3 1 4 13-7 8-38 38-7 8-21 21-11 9-5 3v-19l9-6 18-18 8-7 14-14 7-8 13-14 9-11z" fill="#506E73"/>
<path transform="translate(953,461)" d="m0 0 14 1-6 7-64 64h-2v2l-3-1-5-5 1-5 47-47 7-8 5-6z" fill="#506D72"/>
<path transform="translate(818,691)" d="m0 0h2l-1 4-12 11-7 5h-2v2l-12 7h-5v2l-19 5-5 2h-18l-10-3-12-5-3-2v-2l3-1 16-1 6-1 29-1 16-3 10-4 11-6 11-7z" fill="#17100B"/>
<path transform="translate(850,564)" d="m0 0h1v25l-5 3-11 6-4 1h-7l-3-3 2-8 11-12 15-10z" fill="#506E73"/>
<path transform="translate(396,467)" d="m0 0 5 5 2 4-1 8h-2l-1 4-2 6h-1l-1-7-3-2-2-9v-5l6-1z" fill="#F5D6A4"/>
<path transform="translate(583)" d="m0 0h26l1 3 4 2-14-1-17-3z" fill="#FEE7B4"/>
</svg>
